<svg width="185" height="60" viewBox="0 0 185 60" fill="none" xmlns="http://www.w3.org/2000/svg">
    <path d="M11.22 9.25c-.092.158-.19.275-.296.35a.645.645 0 0 1-.374.102c-.16 0-.333-.057-.523-.17a9.997 9.997 0 0 0-.658-.396 5.124 5.124 0 0 0-.908-.385c-.34-.12-.745-.181-1.214-.181a3.53 3.53 0 0 0-1.112.158 2.329 2.329 0 0 0-.806.42c-.212.18-.371.4-.477.656a2.09 2.09 0 0 0-.159.826c0 .385.106.706.318.962.22.257.507.476.862.657.356.181.76.343 1.215.487.454.143.92.298 1.396.464.477.159.942.347 1.396.566a4.63 4.63 0 0 1 1.214.815c.356.325.64.725.852 1.2.219.476.329 1.053.329 1.732a5.6 5.6 0 0 1-.386 2.083 4.755 4.755 0 0 1-1.112 1.687 5.293 5.293 0 0 1-1.782 1.132c-.704.272-1.51.408-2.418.408a7.55 7.55 0 0 1-1.543-.159 7.98 7.98 0 0 1-1.465-.43 7.926 7.926 0 0 1-1.305-.68 6.311 6.311 0 0 1-1.09-.882l.897-1.46a.897.897 0 0 1 .295-.261.717.717 0 0 1 .386-.113c.19 0 .394.079.613.238.22.15.48.32.783.509.303.189.655.362 1.056.52.408.152.896.227 1.464.227.87 0 1.544-.204 2.02-.611.477-.415.715-1.008.715-1.778 0-.43-.11-.78-.329-1.052a2.491 2.491 0 0 0-.851-.68 6.163 6.163 0 0 0-1.215-.475 40.202 40.202 0 0 1-1.384-.419c-.47-.15-.93-.332-1.385-.543a4.489 4.489 0 0 1-1.214-.827 3.841 3.841 0 0 1-.863-1.268c-.212-.513-.318-1.143-.318-1.89 0-.597.118-1.178.352-1.744A4.573 4.573 0 0 1 3.24 7.54c.454-.438 1.014-.79 1.68-1.053.666-.264 1.43-.396 2.293-.396.968 0 1.861.15 2.678.452.817.302 1.514.725 2.089 1.268l-.76 1.438zm7.952 1.776v11.616h-2.814V11.026h2.814zm.386-3.384c0 .241-.049.467-.147.679-.099.211-.23.396-.397.554a1.883 1.883 0 0 1-.568.385c-.22.09-.454.136-.704.136-.242 0-.473-.045-.692-.136a1.926 1.926 0 0 1-.556-.385 1.92 1.92 0 0 1-.386-.554 1.702 1.702 0 0 1-.136-.68c0-.249.045-.483.136-.701.098-.22.227-.408.386-.566.159-.159.344-.283.556-.374.22-.098.45-.147.692-.147.25 0 .485.049.704.147.22.09.409.215.568.374.166.158.298.347.397.566.098.218.147.452.147.702zm7.126-1.823v16.823H23.88V5.819h2.804zm15.107 5.207-4.619 11.616H34.63l-4.62-11.616h2.316c.212 0 .386.05.522.148a.686.686 0 0 1 .284.373l2.247 6.204a16.704 16.704 0 0 1 .556 2.106c.075-.348.159-.695.25-1.042.09-.347.2-.702.329-1.064l2.292-6.204a.765.765 0 0 1 .284-.373.813.813 0 0 1 .488-.148h2.213zm10.458 4.472c0-.362-.053-.702-.159-1.019a2.356 2.356 0 0 0-.454-.849 2.073 2.073 0 0 0-.783-.566 2.573 2.573 0 0 0-1.09-.215c-.81 0-1.449.23-1.918.69-.461.461-.756 1.114-.885 1.96h5.289zm-5.346 1.687c.046.596.151 1.113.318 1.55.166.431.386.79.658 1.076.273.28.594.49.965.634.378.136.794.204 1.248.204.454 0 .844-.053 1.17-.158.332-.106.62-.223.862-.351.25-.129.465-.246.647-.351.19-.106.37-.159.545-.159.234 0 .408.087.522.26l.806 1.02c-.31.362-.659.667-1.044.916-.386.242-.791.438-1.215.59a6.757 6.757 0 0 1-1.282.305c-.432.06-.852.09-1.26.09-.81 0-1.563-.132-2.259-.396a5.157 5.157 0 0 1-1.816-1.189c-.514-.528-.92-1.177-1.214-1.947-.295-.777-.443-1.675-.443-2.694 0-.793.129-1.536.386-2.23a5.346 5.346 0 0 1 1.101-1.823 5.243 5.243 0 0 1 1.76-1.234c.695-.302 1.478-.453 2.349-.453.733 0 1.41.117 2.031.351.62.234 1.154.578 1.6 1.03.447.446.795.997 1.045 1.653.257.65.386 1.393.386 2.23 0 .423-.046.71-.137.86-.09.144-.265.216-.522.216h-7.207zm14.43-4.143c.363-.695.794-1.238 1.294-1.63.499-.4 1.09-.6 1.77-.6.537 0 .969.116 1.294.35l-.182 2.095a.555.555 0 0 1-.17.294.453.453 0 0 1-.284.08c-.113 0-.283-.02-.51-.057a3.818 3.818 0 0 0-.647-.057c-.31 0-.587.045-.829.136-.242.09-.461.223-.658.396-.19.166-.36.37-.51.611-.145.242-.28.517-.41.827v7.155h-2.803V11.026h1.646c.287 0 .488.053.601.159.114.098.19.28.227.543l.17 1.313zm32.726-6.77v16.37h-2.69V12.068c0-.423.023-.88.068-1.37l-4.96 9.294c-.234.446-.594.668-1.078.668h-.431c-.484 0-.844-.222-1.078-.668l-5.017-9.328c.023.25.042.495.057.736.015.242.022.464.022.668v10.574h-2.69V6.271h2.305c.136 0 .253.003.352.011a.886.886 0 0 1 .26.057c.084.03.156.079.216.147.068.068.133.158.193.271l4.915 9.091c.128.241.246.49.351.747.114.257.224.521.33.793.105-.28.215-.547.329-.804.113-.264.234-.517.363-.759l4.846-9.068c.06-.113.125-.203.193-.271a.647.647 0 0 1 .216-.147c.083-.03.174-.05.272-.057.099-.008.216-.011.352-.011h2.304zm12.182 9.226c0-.362-.052-.702-.158-1.019a2.37 2.37 0 0 0-.454-.849 2.08 2.08 0 0 0-.784-.566 2.57 2.57 0 0 0-1.089-.215c-.81 0-1.449.23-1.918.69-.462.461-.757 1.114-.886 1.96h5.289zm-5.345 1.687c.045.596.151 1.113.317 1.55.167.431.386.79.659 1.076.272.28.594.49.964.634.379.136.795.204 1.249.204.454 0 .844-.053 1.169-.158.333-.106.62-.223.863-.351.249-.129.465-.246.646-.351.19-.106.371-.159.545-.159.235 0 .409.087.522.26l.806 1.02c-.31.362-.658.667-1.044.916a6.231 6.231 0 0 1-1.214.59 6.753 6.753 0 0 1-1.283.305 9.09 9.09 0 0 1-1.26.09 6.314 6.314 0 0 1-2.258-.396 5.158 5.158 0 0 1-1.816-1.189c-.515-.528-.92-1.177-1.215-1.947-.295-.777-.442-1.675-.442-2.694 0-.793.128-1.536.386-2.23a5.347 5.347 0 0 1 1.1-1.823 5.244 5.244 0 0 1 1.76-1.234c.696-.302 1.479-.453 2.349-.453.734 0 1.411.117 2.032.351.62.234 1.154.578 1.6 1.03.446.446.794.997 1.044 1.653.257.65.386 1.393.386 2.23 0 .423-.045.71-.136.86-.091.144-.265.216-.522.216h-7.207zm17.936.498c-.809.038-1.49.11-2.043.215-.552.098-.995.227-1.327.385-.333.159-.571.343-.715.555a1.194 1.194 0 0 0-.216.69c0 .49.144.842.431 1.053.295.212.678.317 1.146.317.576 0 1.071-.102 1.487-.305.424-.212.837-.529 1.237-.951v-1.959zm-6.424-5.038c1.34-1.222 2.951-1.834 4.835-1.834.681 0 1.291.114 1.828.34a3.77 3.77 0 0 1 1.362.928c.371.393.65.864.84 1.415a5.37 5.37 0 0 1 .295 1.812v7.336h-1.271c-.265 0-.469-.038-.613-.114-.145-.083-.258-.245-.341-.486l-.25-.838c-.295.264-.582.498-.862.702a5.3 5.3 0 0 1-.874.498 4.47 4.47 0 0 1-.976.305 5.258 5.258 0 0 1-1.135.114c-.492 0-.946-.064-1.362-.193a3.06 3.06 0 0 1-1.078-.6 2.66 2.66 0 0 1-.704-.985c-.166-.392-.25-.849-.25-1.37a2.653 2.653 0 0 1 .624-1.709c.227-.264.519-.513.874-.747a5.698 5.698 0 0 1 1.306-.611 11.146 11.146 0 0 1 1.816-.42 17.418 17.418 0 0 1 2.36-.203v-.68c0-.777-.166-1.35-.499-1.72-.333-.377-.814-.566-1.441-.566-.454 0-.832.053-1.135.158a4.436 4.436 0 0 0-.783.363c-.227.128-.435.245-.625.35a1.196 1.196 0 0 1-.613.16.832.832 0 0 1-.499-.148 1.35 1.35 0 0 1-.329-.362l-.5-.895zm20.925 1.348c-.318-.386-.665-.657-1.044-.816a3.026 3.026 0 0 0-1.203-.237c-.424 0-.806.079-1.147.237-.34.159-.631.4-.874.725-.241.317-.426.724-.556 1.223-.128.49-.193 1.071-.193 1.743 0 .68.054 1.257.159 1.732.114.468.273.853.477 1.155.204.294.454.51.749.645.295.128.624.193.987.193.584 0 1.079-.121 1.487-.363.409-.241.795-.585 1.158-1.03v-5.207zm2.803-8.174v16.823h-1.714c-.37 0-.605-.17-.703-.51l-.239-1.12c-.468.535-1.01.97-1.623 1.301-.605.332-1.312.498-2.122.498a3.862 3.862 0 0 1-1.748-.396 3.972 3.972 0 0 1-1.373-1.143c-.378-.506-.673-1.129-.886-1.868-.204-.74-.306-1.585-.306-2.536 0-.86.118-1.66.352-2.4a5.858 5.858 0 0 1 1.01-1.925 4.65 4.65 0 0 1 1.578-1.268c.613-.309 1.301-.464 2.065-.464.652 0 1.208.102 1.669.306.462.204.874.48 1.237.826V5.82h2.803zm9.736 5.026c.862 0 1.646.14 2.349.42.712.278 1.317.675 1.816 1.188a5.16 5.16 0 0 1 1.169 1.88c.273.739.409 1.565.409 2.478 0 .921-.136 1.751-.409 2.49a5.272 5.272 0 0 1-1.169 1.892c-.499.52-1.104.92-1.816 1.2-.703.279-1.487.418-2.349.418-.871 0-1.661-.14-2.372-.419a5.125 5.125 0 0 1-1.827-1.2 5.504 5.504 0 0 1-1.169-1.89c-.273-.74-.409-1.57-.409-2.49 0-.914.136-1.74.409-2.48.28-.74.669-1.366 1.169-1.88a5.2 5.2 0 0 1 1.827-1.188c.711-.28 1.501-.419 2.372-.419zm0 9.815c.968 0 1.683-.324 2.145-.973.469-.65.704-1.6.704-2.853 0-1.253-.235-2.208-.704-2.864-.462-.657-1.177-.985-2.145-.985-.984 0-1.714.332-2.191.996-.468.657-.703 1.608-.703 2.853s.235 2.196.703 2.853c.477.649 1.207.973 2.191.973zm26.125-9.634-3.7 11.616h-2.248c-.256 0-.434-.167-.533-.499l-2.088-6.713c-.068-.226-.132-.449-.193-.668a11.683 11.683 0 0 1-.137-.679c-.045.226-.097.457-.158.69-.053.227-.114.453-.182.68l-2.122 6.69c-.091.332-.291.498-.602.498h-2.156l-3.689-11.615h2.236c.204 0 .379.05.522.148a.688.688 0 0 1 .284.373l1.668 6.204c.084.34.156.672.216.996.068.325.125.65.17.974.084-.325.17-.65.261-.974l.306-.996 1.93-6.227a.723.723 0 0 1 .261-.373.815.815 0 0 1 .488-.147h1.237c.198 0 .363.049.5.147a.681.681 0 0 1 .283.373l1.873 6.227c.099.34.189.675.272 1.008.091.324.179.648.261.973a18.89 18.89 0 0 1 .42-1.981l1.714-6.204a.767.767 0 0 1 .284-.373.813.813 0 0 1 .488-.148h2.134zm10.382 2.265a.814.814 0 0 1-.238.26.662.662 0 0 1-.318.068c-.136 0-.284-.038-.442-.113-.151-.076-.33-.159-.534-.25a4.431 4.431 0 0 0-.704-.26 3.288 3.288 0 0 0-.919-.113c-.553 0-.987.117-1.305.351-.31.234-.465.54-.465.917 0 .249.079.46.238.634.167.166.382.313.647.441.272.129.579.246.919.351.341.098.685.208 1.033.329.355.12.704.26 1.044.418.341.151.644.348.908.59.273.233.488.516.647.848.167.332.25.732.25 1.2 0 .559-.102 1.076-.307 1.551a3.329 3.329 0 0 1-.885 1.223c-.394.34-.882.607-1.464.804-.575.188-1.241.283-1.998.283-.4 0-.794-.038-1.18-.114a6.447 6.447 0 0 1-2.077-.747 4.846 4.846 0 0 1-.783-.566l.647-1.064a.907.907 0 0 1 .295-.294.83.83 0 0 1 .431-.102.88.88 0 0 1 .488.147c.159.098.341.204.545.317.204.113.443.219.715.317.28.098.632.147 1.056.147a2.8 2.8 0 0 0 .851-.113 1.81 1.81 0 0 0 .59-.317c.159-.128.272-.276.34-.442.077-.173.114-.35.114-.532a.923.923 0 0 0-.25-.668 2.04 2.04 0 0 0-.647-.452 5.584 5.584 0 0 0-.919-.34c-.34-.106-.692-.219-1.055-.34a11.33 11.33 0 0 1-1.056-.419 3.867 3.867 0 0 1-.919-.622 2.915 2.915 0 0 1-.647-.917c-.159-.362-.239-.8-.239-1.313 0-.476.095-.929.284-1.359.19-.43.465-.804.829-1.12a4.09 4.09 0 0 1 1.373-.77c.553-.197 1.188-.295 1.907-.295.802 0 1.532.132 2.19.396.658.265 1.207.612 1.646 1.042l-.636 1.008zM185 28.302H0V60h185V28.302z" fill="#748561"/>
    <path d="m15.085 47.026-1.997-5.445a11.81 11.81 0 0 1-.307-.86 27.99 27.99 0 0 1-.317-1.076c-.099.385-.201.747-.307 1.087-.106.332-.208.623-.306.872l-1.987 5.422h5.221zm5.391 6.181h-2.36c-.265 0-.48-.064-.647-.192a1.279 1.279 0 0 1-.375-.498l-1.226-3.34H9.07l-1.226 3.34c-.06.173-.178.332-.352.475a.983.983 0 0 1-.647.216H4.462l6.458-16.37h3.11l6.446 16.37zm10.177-9.35a.809.809 0 0 1-.238.26.66.66 0 0 1-.318.068c-.136 0-.284-.038-.442-.113-.152-.076-.33-.159-.534-.25a4.442 4.442 0 0 0-.703-.26 3.288 3.288 0 0 0-.92-.113c-.552 0-.987.117-1.305.351-.31.234-.465.54-.465.917 0 .249.08.46.238.634.166.166.382.313.647.441.272.129.579.246.92.351.34.099.684.208 1.032.329.356.12.704.26 1.044.419.34.15.643.347.908.588.273.234.488.517.647.85.167.331.25.731.25 1.2 0 .558-.102 1.075-.307 1.55a3.343 3.343 0 0 1-.885 1.223c-.393.34-.881.608-1.464.804-.575.188-1.24.283-1.998.283-.4 0-.794-.038-1.18-.114a6.429 6.429 0 0 1-2.077-.747 4.844 4.844 0 0 1-.783-.566l.647-1.064a.914.914 0 0 1 .295-.294.828.828 0 0 1 .431-.102.88.88 0 0 1 .488.147c.16.098.34.204.545.317.204.113.443.219.715.317.28.098.632.147 1.056.147.333 0 .616-.038.85-.113.243-.083.44-.189.591-.317.159-.128.272-.275.34-.441a1.32 1.32 0 0 0 .114-.533.925.925 0 0 0-.25-.668 2.043 2.043 0 0 0-.647-.452 5.602 5.602 0 0 0-.919-.34c-.34-.106-.692-.219-1.055-.34-.356-.12-.708-.26-1.056-.419a3.86 3.86 0 0 1-.92-.622 2.91 2.91 0 0 1-.646-.917c-.16-.362-.239-.8-.239-1.313 0-.476.095-.929.284-1.359.19-.43.465-.803.829-1.12.37-.325.828-.582 1.373-.77.552-.197 1.188-.295 1.907-.295.802 0 1.532.132 2.19.396.659.265 1.207.612 1.646 1.042l-.636 1.008zm11.792 0a.811.811 0 0 1-.239.26.66.66 0 0 1-.318.068c-.136 0-.283-.038-.442-.113-.151-.076-.33-.159-.533-.25a4.446 4.446 0 0 0-.704-.26 3.289 3.289 0 0 0-.92-.113c-.552 0-.987.117-1.305.351-.31.234-.465.54-.465.917 0 .249.08.46.238.634.167.166.382.313.647.441.273.129.579.246.92.351.34.099.684.208 1.032.329.356.12.704.26 1.044.419.341.15.644.347.909.588.272.234.488.517.646.85.167.331.25.731.25 1.2 0 .558-.102 1.075-.306 1.55a3.343 3.343 0 0 1-.886 1.223c-.393.34-.881.608-1.464.804-.575.188-1.24.283-1.997.283-.401 0-.795-.038-1.18-.114a6.42 6.42 0 0 1-2.077-.747 4.844 4.844 0 0 1-.784-.566l.647-1.064a.913.913 0 0 1 .295-.294.828.828 0 0 1 .432-.102.88.88 0 0 1 .488.147c.159.098.34.204.544.317.205.113.443.219.715.317.28.098.632.147 1.056.147a2.8 2.8 0 0 0 .851-.113c.242-.083.44-.189.59-.317.16-.128.273-.275.34-.441a1.32 1.32 0 0 0 .114-.533.925.925 0 0 0-.25-.668 2.043 2.043 0 0 0-.646-.452 5.602 5.602 0 0 0-.92-.34 54.28 54.28 0 0 1-1.055-.34c-.356-.12-.708-.26-1.056-.419a3.86 3.86 0 0 1-.919-.622 2.91 2.91 0 0 1-.647-.917c-.159-.362-.238-.8-.238-1.313 0-.476.094-.929.284-1.359.189-.43.465-.803.828-1.12.37-.325.828-.582 1.373-.77.553-.197 1.188-.295 1.907-.295.802 0 1.532.132 2.19.396.659.265 1.207.612 1.646 1.042l-.635 1.008zm7.592-2.264v11.614h-2.815V41.594h2.815zm.386-3.386c0 .242-.05.468-.148.68a1.82 1.82 0 0 1-.397.554 1.882 1.882 0 0 1-.568.385c-.22.091-.454.136-.704.136-.242 0-.472-.045-.692-.136a1.92 1.92 0 0 1-.942-.94 1.703 1.703 0 0 1-.136-.678c0-.25.045-.483.136-.702.099-.22.227-.408.386-.566.159-.159.344-.283.556-.374.22-.098.45-.147.692-.147.25 0 .485.049.704.147.22.09.409.215.568.374.166.158.298.347.397.566.098.218.148.453.148.702zm11.392 5.65a.81.81 0 0 1-.238.26.66.66 0 0 1-.318.068c-.136 0-.284-.038-.442-.113-.152-.076-.33-.159-.534-.25a4.446 4.446 0 0 0-.703-.26 3.289 3.289 0 0 0-.92-.113c-.552 0-.987.117-1.305.351-.31.234-.465.54-.465.917 0 .249.08.46.238.634.166.166.382.313.647.441.272.129.579.246.92.351.34.099.684.208 1.032.329.356.12.704.26 1.044.419.34.15.643.347.908.588.273.234.488.517.647.85.166.331.25.731.25 1.2 0 .558-.102 1.075-.307 1.55a3.345 3.345 0 0 1-.885 1.223c-.393.34-.881.608-1.464.804-.575.188-1.24.283-1.998.283-.4 0-.794-.038-1.18-.114a6.416 6.416 0 0 1-2.077-.747 4.843 4.843 0 0 1-.783-.566l.647-1.064a.913.913 0 0 1 .295-.294.828.828 0 0 1 .431-.102.88.88 0 0 1 .488.147c.16.098.34.204.545.317.204.113.443.219.715.317.28.098.632.147 1.056.147a2.8 2.8 0 0 0 .85-.113c.243-.083.44-.189.591-.317.159-.128.273-.275.34-.441a1.32 1.32 0 0 0 .114-.533.925.925 0 0 0-.25-.668 2.044 2.044 0 0 0-.647-.452 5.61 5.61 0 0 0-.919-.34c-.34-.106-.692-.219-1.055-.34-.356-.12-.708-.26-1.056-.419a3.858 3.858 0 0 1-.92-.622 2.906 2.906 0 0 1-.646-.917c-.16-.362-.239-.8-.239-1.313 0-.476.095-.929.284-1.359.19-.43.466-.803.829-1.12.37-.325.828-.582 1.373-.77.552-.197 1.188-.295 1.907-.295.802 0 1.532.132 2.19.396.659.265 1.207.612 1.646 1.042l-.636 1.008zm8.568 9.532c-1.014 0-1.793-.283-2.338-.85-.537-.573-.806-1.362-.806-2.365v-6.487h-1.191a.547.547 0 0 1-.386-.147c-.106-.099-.16-.246-.16-.442v-1.11l1.874-.305.59-3.17a.621.621 0 0 1 .216-.35.643.643 0 0 1 .408-.125h1.453v3.656h3.11v1.993h-3.11v6.294c0 .362.087.645.26.85.183.203.428.305.739.305.174 0 .317-.02.43-.057.122-.045.224-.09.307-.136.091-.045.17-.086.239-.124a.367.367 0 0 1 .204-.068c.083 0 .151.023.204.068a.8.8 0 0 1 .17.181l.84 1.358c-.408.34-.877.597-1.407.77-.53.174-1.078.26-1.646.26zm13.794-7.325c0-.362-.053-.702-.159-1.019a2.354 2.354 0 0 0-.454-.849 2.074 2.074 0 0 0-.783-.566 2.574 2.574 0 0 0-1.09-.215c-.81 0-1.449.23-1.918.69-.461.461-.756 1.114-.885 1.96h5.289zm-5.346 1.687c.046.596.152 1.113.318 1.55.166.431.386.79.658 1.076.273.28.594.49.965.634a3.67 3.67 0 0 0 1.248.204c.455 0 .844-.053 1.17-.158a5.23 5.23 0 0 0 .862-.351c.25-.129.465-.246.647-.351.19-.106.37-.159.545-.159.234 0 .408.087.522.26l.806 1.02c-.31.362-.659.667-1.044.916a6.21 6.21 0 0 1-1.215.59 6.744 6.744 0 0 1-1.282.305c-.432.06-.852.09-1.26.09-.81 0-1.563-.132-2.259-.396a5.158 5.158 0 0 1-1.816-1.189c-.514-.528-.92-1.177-1.214-1.947-.295-.777-.443-1.675-.443-2.694 0-.793.129-1.536.386-2.23a5.348 5.348 0 0 1 1.101-1.823 5.249 5.249 0 0 1 1.76-1.234c.695-.302 1.478-.453 2.349-.453.734 0 1.41.117 2.031.351.62.234 1.154.578 1.6 1.03.447.446.795.997 1.045 1.653.257.65.386 1.393.386 2.23 0 .423-.046.71-.137.86-.09.144-.264.216-.522.216h-7.207zm19.094-3.192c-.317-.385-.665-.657-1.044-.816a3.028 3.028 0 0 0-1.203-.237c-.423 0-.806.079-1.146.237-.34.159-.632.4-.874.725-.242.317-.427.724-.556 1.223-.129.49-.193 1.071-.193 1.743 0 .68.053 1.257.159 1.732.113.468.272.853.477 1.155.204.294.454.51.749.645.295.128.624.192.987.192.583 0 1.078-.12 1.487-.362.408-.241.794-.585 1.157-1.03v-5.207zm2.804-8.174v16.823h-1.714c-.37 0-.605-.17-.704-.51l-.238-1.12c-.469.535-1.01.97-1.623 1.301-.605.332-1.313.498-2.122.498a3.862 3.862 0 0 1-1.748-.396 3.966 3.966 0 0 1-1.373-1.143c-.379-.506-.674-1.129-.886-1.868-.204-.74-.306-1.585-.306-2.536 0-.86.117-1.66.352-2.4a5.835 5.835 0 0 1 1.01-1.925 4.65 4.65 0 0 1 1.577-1.267c.613-.31 1.302-.465 2.066-.465.65 0 1.207.102 1.668.306.462.204.874.48 1.237.826v-6.124h2.804zm21.974 14.31v2.513h-9.613v-16.37h3.053v13.856h6.56zm6.459-9.102v11.614h-2.815V41.594h2.815zm.386-3.386c0 .242-.049.468-.148.68-.099.211-.23.396-.397.554a1.89 1.89 0 0 1-.568.385c-.219.091-.454.136-.703.136-.242 0-.474-.045-.693-.136a1.924 1.924 0 0 1-.556-.385 1.932 1.932 0 0 1-.386-.554 1.828 1.828 0 0 1 0-1.381c.099-.22.227-.408.386-.566.159-.159.344-.283.556-.374a1.68 1.68 0 0 1 .693-.147c.249 0 .484.049.703.147.219.09.409.215.568.374.167.158.298.347.397.566.099.218.148.453.148.702zm14.786 3.386-4.619 11.614h-2.543l-4.619-11.614h2.315c.213 0 .386.048.522.147a.679.679 0 0 1 .284.373l2.247 6.204a16.983 16.983 0 0 1 .557 2.106c.076-.348.159-.695.249-1.042.091-.347.201-.702.329-1.064l2.293-6.204a.768.768 0 0 1 .284-.373.81.81 0 0 1 .488-.148h2.213zm6.215 0v11.614h-2.815V41.594h2.815zm.386-3.386c0 .242-.049.468-.148.68-.097.211-.23.396-.397.554a1.874 1.874 0 0 1-.567.385c-.219.091-.454.136-.704.136-.242 0-.472-.045-.692-.136a1.912 1.912 0 0 1-.942-.94 1.7 1.7 0 0 1-.136-.678c0-.25.045-.483.136-.702.098-.22.227-.408.386-.566.158-.159.345-.283.556-.374.22-.098.45-.147.692-.147.25 0 .485.049.704.147.22.09.408.215.567.374a1.75 1.75 0 0 1 .545 1.268zm6.911 4.812c.234-.234.48-.45.738-.645.264-.204.54-.374.828-.51a4.33 4.33 0 0 1 .942-.328 4.505 4.505 0 0 1 1.09-.125c.635 0 1.198.11 1.691.329.491.211.9.513 1.226.905.332.385.582.85.749 1.393.173.536.261 1.128.261 1.777v7.393h-2.804v-7.393c0-.71-.163-1.256-.488-1.641-.325-.393-.821-.59-1.487-.59-.484 0-.938.11-1.361.33a4.854 4.854 0 0 0-1.204.893v8.4h-2.803V41.594h1.714c.363 0 .601.17.715.509l.193.917zm16.263 4.098c.347 0 .65-.045.908-.136a1.79 1.79 0 0 0 .635-.396 1.53 1.53 0 0 0 .386-.6c.091-.234.136-.49.136-.77 0-.574-.174-1.026-.522-1.358-.34-.34-.855-.51-1.543-.51-.689 0-1.208.17-1.555.51-.341.332-.511.785-.511 1.358 0 .272.041.525.125.759.091.234.219.437.386.61a1.9 1.9 0 0 0 .647.397c.264.09.567.136.908.136zm3.166 6.611a.773.773 0 0 0-.204-.554 1.298 1.298 0 0 0-.556-.329 3.869 3.869 0 0 0-.829-.18 12.886 12.886 0 0 0-.998-.08 44.138 44.138 0 0 0-1.09-.057 12.672 12.672 0 0 1-1.089-.09 2.685 2.685 0 0 0-.761.611 1.26 1.26 0 0 0-.284.815c0 .204.049.393.148.566.105.181.268.336.488.464.227.129.517.227.874.295.355.075.79.113 1.305.113.522 0 .972-.042 1.351-.125.378-.075.687-.184.93-.328.25-.136.432-.302.545-.498a1.18 1.18 0 0 0 .17-.623zm2.792-11.74v1.042c0 .332-.2.536-.601.611l-1.044.193c.159.4.238.838.238 1.313a3.425 3.425 0 0 1-1.305 2.74 4.578 4.578 0 0 1-1.453.758 5.962 5.962 0 0 1-1.793.26c-.227 0-.447-.01-.658-.033a8.264 8.264 0 0 1-.625-.09c-.363.218-.544.463-.544.735 0 .234.105.407.317.52.219.106.507.182.863.227.355.045.76.076 1.214.09.454.008.92.03 1.396.069.477.037.942.105 1.396.203.454.091.858.238 1.215.442.355.204.639.483.851.838.219.347.329.796.329 1.347 0 .513-.129 1.011-.386 1.494-.249.483-.617.913-1.101 1.29-.476.378-1.067.68-1.77.906-.697.234-1.492.351-2.384.351-.878 0-1.642-.086-2.292-.26-.652-.166-1.192-.392-1.623-.68-.432-.279-.754-.603-.965-.973a2.29 2.29 0 0 1-.318-1.155c0-.543.162-.996.488-1.358.333-.37.787-.664 1.362-.883a1.951 1.951 0 0 1-.738-.634c-.181-.264-.272-.611-.272-1.042 0-.173.03-.35.091-.532.068-.188.162-.373.284-.554a2.71 2.71 0 0 1 .476-.51c.189-.166.412-.313.67-.441a3.713 3.713 0 0 1-1.396-1.268c-.334-.529-.499-1.147-.499-1.857 0-.573.113-1.09.34-1.55.234-.469.556-.865.965-1.19a4.395 4.395 0 0 1 1.464-.758 6.294 6.294 0 0 1 1.85-.26c.499 0 .968.052 1.407.158.438.098.84.245 1.203.442h3.348z" fill="#fff"/>
</svg>
